<?xml version="1.0" encoding="utf-8" standalone="no"?>
<!DOCTYPE svg PUBLIC "-//W3C//DTD SVG 1.1//EN"
  "http://www.w3.org/Graphics/SVG/1.1/DTD/svg11.dtd">
<svg xmlns:xlink="http://www.w3.org/1999/xlink" width="2151.960625pt" height="1575.842656pt" viewBox="0 0 2151.960625 1575.842656" xmlns="http://www.w3.org/2000/svg" version="1.1">
 <metadata>
  <rdf:RDF xmlns:dc="http://purl.org/dc/elements/1.1/" xmlns:cc="http://creativecommons.org/ns#" xmlns:rdf="http://www.w3.org/1999/02/22-rdf-syntax-ns#">
   <cc:Work>
    <dc:type rdf:resource="http://purl.org/dc/dcmitype/StillImage"/>
    <dc:date>2023-04-02T14:16:05.077883</dc:date>
    <dc:format>image/svg+xml</dc:format>
    <dc:creator>
     <cc:Agent>
      <dc:title>Matplotlib v3.6.2, https://matplotlib.org/</dc:title>
     </cc:Agent>
    </dc:creator>
   </cc:Work>
  </rdf:RDF>
 </metadata>
 <defs>
  <style type="text/css">*{stroke-linejoin: round; stroke-linecap: butt}</style>
 </defs>
 <g id="figure_1">
  <g id="patch_1">
   <path d="M 0 1575.842656 
L 2151.960625 1575.842656 
L 2151.960625 0 
L 0 0 
z
" style="fill: #ffffff; stroke: #ffffff; stroke-linejoin: miter"/>
  </g>
  <g id="axes_1">
   <g id="patch_2">
    <path d="M 548.296875 1344.723906 
L 2039.779375 1344.723906 
L 2039.779375 48.991406 
L 548.296875 48.991406 
z
" style="fill: #ffffff"/>
   </g>
   <g id="PathCollection_1">
    <path d="M 622.871 288.837135 
C 631.257458 288.837135 639.301558 285.50516 645.23168 279.575038 
C 651.161801 273.644916 654.493777 265.600817 654.493777 257.214358 
C 654.493777 248.8279 651.161801 240.7838 645.23168 234.853678 
C 639.301558 228.923557 631.257458 225.591582 622.871 225.591582 
C 614.484542 225.591582 606.440442 228.923557 600.51032 234.853678 
C 594.580199 240.7838 591.248223 248.8279 591.248223 257.214358 
C 591.248223 265.600817 594.580199 273.644916 600.51032 279.575038 
C 606.440442 285.50516 614.484542 288.837135 622.871 288.837135 
z
" clip-path="url(#p49b7b7983c)" style="fill: #1f77b4; stroke: #1f77b4"/>
    <path d="M 697.445125 467.255549 
C 705.831583 467.255549 713.875683 463.923573 719.805805 457.993452 
C 725.735926 452.06333 729.067902 444.019231 729.067902 435.632772 
C 729.067902 427.246314 725.735926 419.202214 719.805805 413.272092 
C 713.875683 407.341971 705.831583 404.009996 697.445125 404.009996 
C 689.058667 404.009996 681.014567 407.341971 675.084445 413.272092 
C 669.154324 419.202214 665.822348 427.246314 665.822348 435.632772 
C 665.822348 444.019231 669.154324 452.06333 675.084445 457.993452 
C 681.014567 463.923573 689.058667 467.255549 697.445125 467.255549 
z
" clip-path="url(#p49b7b7983c)" style="fill: #1f77b4; stroke: #1f77b4"/>
    <path d="M 846.593375 662.28265 
C 854.979833 662.28265 863.023933 658.950675 868.954055 653.020553 
C 874.884176 647.090432 878.216152 639.046332 878.216152 630.659873 
C 878.216152 622.273415 874.884176 614.229315 868.954055 608.299194 
C 863.023933 602.369072 854.979833 599.037097 846.593375 599.037097 
C 838.206917 599.037097 830.162817 602.369072 824.232695 608.299194 
C 818.302574 614.229315 814.970598 622.273415 814.970598 630.659873 
C 814.970598 639.046332 818.302574 647.090432 824.232695 653.020553 
C 830.162817 658.950675 838.206917 662.28265 846.593375 662.28265 
z
" clip-path="url(#p49b7b7983c)" style="fill: #1f77b4; stroke: #1f77b4"/>
    <path d="M 1144.889875 851.760766 
C 1153.276333 851.760766 1161.320433 848.428791 1167.250555 842.498669 
C 1173.180676 836.568547 1176.512652 828.524448 1176.512652 820.137989 
C 1176.512652 811.751531 1173.180676 803.707431 1167.250555 797.777309 
C 1161.320433 791.847188 1153.276333 788.515213 1144.889875 788.515213 
C 1136.503417 788.515213 1128.459317 791.847188 1122.529195 797.777309 
C 1116.599074 803.707431 1113.267098 811.751531 1113.267098 820.137989 
C 1113.267098 828.524448 1116.599074 836.568547 1122.529195 842.498669 
C 1128.459317 848.428791 1136.503417 851.760766 1144.889875 851.760766 
z
" clip-path="url(#p49b7b7983c)" style="fill: #1f77b4; stroke: #1f77b4"/>
    <path d="M 1741.482875 1211.829641 
C 1749.869333 1211.829641 1757.913433 1208.497666 1763.843555 1202.567545 
C 1769.773676 1196.637423 1773.105652 1188.593323 1773.105652 1180.206865 
C 1773.105652 1171.820406 1769.773676 1163.776307 1763.843555 1157.846185 
C 1757.913433 1151.916063 1749.869333 1148.584088 1741.482875 1148.584088 
C 1733.096417 1148.584088 1725.052317 1151.916063 1719.122195 1157.846185 
C 1713.192074 1163.776307 1709.860098 1171.820406 1709.860098 1180.206865 
C 1709.860098 1188.593323 1713.192074 1196.637423 1719.122195 1202.567545 
C 1725.052317 1208.497666 1733.096417 1211.829641 1741.482875 1211.829641 
z
" clip-path="url(#p49b7b7983c)" style="fill: #1f77b4; stroke: #1f77b4"/>
   </g>
   <g id="matplotlib.axis_1">
    <g id="xtick_1">
     <g id="line2d_1">
      <defs>
       <path id="mba0872e475" d="M 0 0 
L 0 3.5 
" style="stroke: #000000; stroke-width: 0.8"/>
      </defs>
      <g>
       <use xlink:href="#mba0872e475" x="548.296875" y="1344.723906" style="stroke: #000000; stroke-width: 0.8"/>
      </g>
     </g>
     <g id="text_1">
      <!-- 0 -->
      <g transform="translate(513.303125 1435.306719) scale(1.1 -1.1)">
       <defs>
        <path id="DejaVuSerif-30" d="M 2034 219 
Q 2513 219 2750 744 
Q 2988 1269 2988 2328 
Q 2988 3391 2750 3916 
Q 2513 4441 2034 4441 
Q 1556 4441 1318 3916 
Q 1081 3391 1081 2328 
Q 1081 1269 1318 744 
Q 1556 219 2034 219 
z
M 2034 -91 
Q 1275 -91 848 546 
Q 422 1184 422 2328 
Q 422 3475 848 4112 
Q 1275 4750 2034 4750 
Q 2797 4750 3222 4112 
Q 3647 3475 3647 2328 
Q 3647 1184 3222 546 
Q 2797 -91 2034 -91 
z
" transform="scale(0.015625)"/>
       </defs>
       <use xlink:href="#DejaVuSerif-30"/>
      </g>
     </g>
    </g>
    <g id="xtick_2">
     <g id="line2d_2">
      <g>
       <use xlink:href="#mba0872e475" x="846.593375" y="1344.723906" style="stroke: #000000; stroke-width: 0.8"/>
      </g>
     </g>
     <g id="text_2">
      <!-- 40 -->
      <g transform="translate(776.605875 1435.306719) scale(1.1 -1.1)">
       <defs>
        <path id="DejaVuSerif-34" d="M 2234 1581 
L 2234 4063 
L 641 1581 
L 2234 1581 
z
M 3609 0 
L 1484 0 
L 1484 331 
L 2234 331 
L 2234 1247 
L 197 1247 
L 197 1588 
L 2241 4750 
L 2859 4750 
L 2859 1581 
L 3750 1581 
L 3750 1247 
L 2859 1247 
L 2859 331 
L 3609 331 
L 3609 0 
z
" transform="scale(0.015625)"/>
       </defs>
       <use xlink:href="#DejaVuSerif-34"/>
       <use xlink:href="#DejaVuSerif-30" x="63.623047"/>
      </g>
     </g>
    </g>
    <g id="xtick_3">
     <g id="line2d_3">
      <g>
       <use xlink:href="#mba0872e475" x="1144.889875" y="1344.723906" style="stroke: #000000; stroke-width: 0.8"/>
      </g>
     </g>
     <g id="text_3">
      <!-- 80 -->
      <g transform="translate(1074.902375 1435.306719) scale(1.1 -1.1)">
       <defs>
        <path id="DejaVuSerif-38" d="M 2981 1275 
Q 2981 1775 2732 2051 
Q 2484 2328 2034 2328 
Q 1584 2328 1336 2051 
Q 1088 1775 1088 1275 
Q 1088 772 1336 495 
Q 1584 219 2034 219 
Q 2484 219 2732 495 
Q 2981 772 2981 1275 
z
M 2853 3541 
Q 2853 3966 2637 4203 
Q 2422 4441 2034 4441 
Q 1650 4441 1433 4203 
Q 1216 3966 1216 3541 
Q 1216 3113 1433 2875 
Q 1650 2638 2034 2638 
Q 2422 2638 2637 2875 
Q 2853 3113 2853 3541 
z
M 2516 2484 
Q 3047 2413 3344 2092 
Q 3641 1772 3641 1275 
Q 3641 619 3225 264 
Q 2809 -91 2034 -91 
Q 1263 -91 845 264 
Q 428 619 428 1275 
Q 428 1772 725 2092 
Q 1022 2413 1556 2484 
Q 1084 2569 832 2842 
Q 581 3116 581 3541 
Q 581 4103 968 4426 
Q 1356 4750 2034 4750 
Q 2713 4750 3100 4426 
Q 3488 4103 3488 3541 
Q 3488 3116 3236 2842 
Q 2984 2569 2516 2484 
z
" transform="scale(0.015625)"/>
       </defs>
       <use xlink:href="#DejaVuSerif-38"/>
       <use xlink:href="#DejaVuSerif-30" x="63.623047"/>
      </g>
     </g>
    </g>
    <g id="xtick_4">
     <g id="line2d_4">
      <g>
       <use xlink:href="#mba0872e475" x="1443.186375" y="1344.723906" style="stroke: #000000; stroke-width: 0.8"/>
      </g>
     </g>
     <g id="text_4">
      <!-- 120 -->
      <g transform="translate(1338.205125 1435.306719) scale(1.1 -1.1)">
       <defs>
        <path id="DejaVuSerif-31" d="M 909 0 
L 909 331 
L 1722 331 
L 1722 4213 
L 781 3603 
L 781 4013 
L 1919 4750 
L 2350 4750 
L 2350 331 
L 3163 331 
L 3163 0 
L 909 0 
z
" transform="scale(0.015625)"/>
        <path id="DejaVuSerif-32" d="M 819 3553 
L 469 3553 
L 469 4384 
Q 803 4563 1142 4656 
Q 1481 4750 1806 4750 
Q 2534 4750 2956 4397 
Q 3378 4044 3378 3438 
Q 3378 2753 2422 1800 
Q 2347 1728 2309 1691 
L 1131 513 
L 3078 513 
L 3078 1088 
L 3444 1088 
L 3444 0 
L 434 0 
L 434 341 
L 1850 1753 
Q 2319 2222 2519 2614 
Q 2719 3006 2719 3438 
Q 2719 3909 2473 4175 
Q 2228 4441 1797 4441 
Q 1350 4441 1106 4219 
Q 863 3997 819 3553 
z
" transform="scale(0.015625)"/>
       </defs>
       <use xlink:href="#DejaVuSerif-31"/>
       <use xlink:href="#DejaVuSerif-32" x="63.623047"/>
       <use xlink:href="#DejaVuSerif-30" x="127.246094"/>
      </g>
     </g>
    </g>
    <g id="xtick_5">
     <g id="line2d_5">
      <g>
       <use xlink:href="#mba0872e475" x="1741.482875" y="1344.723906" style="stroke: #000000; stroke-width: 0.8"/>
      </g>
     </g>
     <g id="text_5">
      <!-- 160 -->
      <g transform="translate(1636.501625 1435.306719) scale(1.1 -1.1)">
       <defs>
        <path id="DejaVuSerif-36" d="M 2094 219 
Q 2534 219 2771 542 
Q 3009 866 3009 1472 
Q 3009 2078 2771 2401 
Q 2534 2725 2094 2725 
Q 1647 2725 1412 2412 
Q 1178 2100 1178 1509 
Q 1178 888 1415 553 
Q 1653 219 2094 219 
z
M 1075 2569 
Q 1288 2803 1556 2918 
Q 1825 3034 2163 3034 
Q 2859 3034 3264 2615 
Q 3669 2197 3669 1472 
Q 3669 763 3233 336 
Q 2797 -91 2069 -91 
Q 1278 -91 853 498 
Q 428 1088 428 2181 
Q 428 3406 931 4078 
Q 1434 4750 2350 4750 
Q 2597 4750 2869 4703 
Q 3141 4656 3425 4563 
L 3425 3794 
L 3072 3794 
Q 3034 4109 2831 4275 
Q 2628 4441 2284 4441 
Q 1678 4441 1381 3981 
Q 1084 3522 1075 2569 
z
" transform="scale(0.015625)"/>
       </defs>
       <use xlink:href="#DejaVuSerif-31"/>
       <use xlink:href="#DejaVuSerif-36" x="63.623047"/>
       <use xlink:href="#DejaVuSerif-30" x="127.246094"/>
      </g>
     </g>
    </g>
    <g id="xtick_6">
     <g id="line2d_6">
      <g>
       <use xlink:href="#mba0872e475" x="2039.779375" y="1344.723906" style="stroke: #000000; stroke-width: 0.8"/>
      </g>
     </g>
     <g id="text_6">
      <!-- 200 -->
      <g transform="translate(1934.798125 1435.306719) scale(1.1 -1.1)">
       <use xlink:href="#DejaVuSerif-32"/>
       <use xlink:href="#DejaVuSerif-30" x="63.623047"/>
       <use xlink:href="#DejaVuSerif-30" x="127.246094"/>
      </g>
     </g>
    </g>
    <g id="text_7">
     <!-- Distance (cm) -->
     <g transform="translate(907.104531 1545.766094) scale(1.1 -1.1)">
      <defs>
       <path id="DejaVuSerif-44" d="M 1581 331 
L 2163 331 
Q 3072 331 3558 850 
Q 4044 1369 4044 2338 
Q 4044 3306 3559 3818 
Q 3075 4331 2163 4331 
L 1581 4331 
L 1581 331 
z
M 353 0 
L 353 331 
L 947 331 
L 947 4331 
L 353 4331 
L 353 4666 
L 2209 4666 
Q 3416 4666 4089 4050 
Q 4763 3434 4763 2338 
Q 4763 1238 4088 619 
Q 3413 0 2209 0 
L 353 0 
z
" transform="scale(0.015625)"/>
       <path id="DejaVuSerif-69" d="M 622 4353 
Q 622 4497 726 4603 
Q 831 4709 978 4709 
Q 1122 4709 1226 4603 
Q 1331 4497 1331 4353 
Q 1331 4206 1228 4103 
Q 1125 4000 978 4000 
Q 831 4000 726 4103 
Q 622 4206 622 4353 
z
M 1356 331 
L 1900 331 
L 1900 0 
L 231 0 
L 231 331 
L 781 331 
L 781 2988 
L 231 2988 
L 231 3322 
L 1356 3322 
L 1356 331 
z
" transform="scale(0.015625)"/>
       <path id="DejaVuSerif-73" d="M 359 184 
L 359 959 
L 691 959 
Q 703 588 923 403 
Q 1144 219 1575 219 
Q 1963 219 2166 364 
Q 2369 509 2369 788 
Q 2369 1006 2220 1140 
Q 2072 1275 1594 1428 
L 1178 1569 
Q 750 1706 558 1912 
Q 366 2119 366 2438 
Q 366 2894 700 3153 
Q 1034 3413 1625 3413 
Q 1888 3413 2178 3344 
Q 2469 3275 2778 3144 
L 2778 2419 
L 2447 2419 
Q 2434 2741 2221 2922 
Q 2009 3103 1644 3103 
Q 1281 3103 1095 2975 
Q 909 2847 909 2591 
Q 909 2381 1050 2254 
Q 1191 2128 1613 1997 
L 2069 1856 
Q 2541 1709 2748 1489 
Q 2956 1269 2956 922 
Q 2956 450 2595 179 
Q 2234 -91 1600 -91 
Q 1278 -91 972 -22 
Q 666 47 359 184 
z
" transform="scale(0.015625)"/>
       <path id="DejaVuSerif-74" d="M 691 2988 
L 184 2988 
L 184 3322 
L 691 3322 
L 691 4353 
L 1269 4353 
L 1269 3322 
L 2350 3322 
L 2350 2988 
L 1269 2988 
L 1269 878 
Q 1269 456 1350 337 
Q 1431 219 1650 219 
Q 1875 219 1978 351 
Q 2081 484 2088 781 
L 2522 781 
Q 2497 328 2275 118 
Q 2053 -91 1600 -91 
Q 1103 -91 897 129 
Q 691 350 691 878 
L 691 2988 
z
" transform="scale(0.015625)"/>
       <path id="DejaVuSerif-61" d="M 2547 1044 
L 2547 1747 
L 1806 1747 
Q 1378 1747 1168 1562 
Q 959 1378 959 997 
Q 959 650 1171 447 
Q 1384 244 1747 244 
Q 2106 244 2326 466 
Q 2547 688 2547 1044 
z
M 3122 2075 
L 3122 331 
L 3634 331 
L 3634 0 
L 2547 0 
L 2547 359 
Q 2356 128 2106 18 
Q 1856 -91 1522 -91 
Q 969 -91 644 203 
Q 319 497 319 997 
Q 319 1513 691 1797 
Q 1063 2081 1741 2081 
L 2547 2081 
L 2547 2309 
Q 2547 2688 2317 2895 
Q 2088 3103 1672 3103 
Q 1328 3103 1125 2947 
Q 922 2791 872 2484 
L 575 2484 
L 575 3156 
Q 875 3284 1158 3348 
Q 1441 3413 1709 3413 
Q 2400 3413 2761 3070 
Q 3122 2728 3122 2075 
z
" transform="scale(0.015625)"/>
       <path id="DejaVuSerif-6e" d="M 263 0 
L 263 331 
L 781 331 
L 781 2988 
L 231 2988 
L 231 3322 
L 1356 3322 
L 1356 2731 
Q 1516 3069 1770 3241 
Q 2025 3413 2363 3413 
Q 2913 3413 3172 3097 
Q 3431 2781 3431 2113 
L 3431 331 
L 3944 331 
L 3944 0 
L 2356 0 
L 2356 331 
L 2853 331 
L 2853 1931 
Q 2853 2541 2703 2767 
Q 2553 2994 2175 2994 
Q 1775 2994 1565 2701 
Q 1356 2409 1356 1850 
L 1356 331 
L 1856 331 
L 1856 0 
L 263 0 
z
" transform="scale(0.015625)"/>
       <path id="DejaVuSerif-63" d="M 3291 997 
Q 3169 466 2822 187 
Q 2475 -91 1925 -91 
Q 1200 -91 759 389 
Q 319 869 319 1663 
Q 319 2459 759 2936 
Q 1200 3413 1925 3413 
Q 2241 3413 2553 3339 
Q 2866 3266 3181 3116 
L 3181 2266 
L 2847 2266 
Q 2781 2703 2561 2903 
Q 2341 3103 1931 3103 
Q 1466 3103 1228 2742 
Q 991 2381 991 1663 
Q 991 944 1227 581 
Q 1463 219 1931 219 
Q 2303 219 2525 412 
Q 2747 606 2828 997 
L 3291 997 
z
" transform="scale(0.015625)"/>
       <path id="DejaVuSerif-65" d="M 3469 1600 
L 991 1600 
L 991 1575 
Q 991 903 1244 561 
Q 1497 219 1991 219 
Q 2369 219 2611 417 
Q 2853 616 2950 1006 
L 3413 1006 
Q 3275 459 2904 184 
Q 2534 -91 1931 -91 
Q 1203 -91 761 389 
Q 319 869 319 1663 
Q 319 2450 753 2931 
Q 1188 3413 1894 3413 
Q 2647 3413 3050 2948 
Q 3453 2484 3469 1600 
z
M 2791 1931 
Q 2772 2513 2545 2808 
Q 2319 3103 1894 3103 
Q 1497 3103 1269 2806 
Q 1041 2509 991 1931 
L 2791 1931 
z
" transform="scale(0.015625)"/>
       <path id="DejaVuSerif-20" transform="scale(0.015625)"/>
       <path id="DejaVuSerif-28" d="M 2041 -997 
Q 1281 -656 893 83 
Q 506 822 506 1931 
Q 506 3044 893 3783 
Q 1281 4522 2041 4863 
L 2041 4556 
Q 1559 4225 1350 3623 
Q 1141 3022 1141 1931 
Q 1141 844 1350 242 
Q 1559 -359 2041 -691 
L 2041 -997 
z
" transform="scale(0.015625)"/>
       <path id="DejaVuSerif-6d" d="M 3316 2675 
Q 3481 3041 3739 3227 
Q 3997 3413 4341 3413 
Q 4863 3413 5119 3089 
Q 5375 2766 5375 2113 
L 5375 331 
L 5894 331 
L 5894 0 
L 4300 0 
L 4300 331 
L 4800 331 
L 4800 2047 
Q 4800 2556 4650 2772 
Q 4500 2988 4153 2988 
Q 3769 2988 3567 2697 
Q 3366 2406 3366 1850 
L 3366 331 
L 3866 331 
L 3866 0 
L 2291 0 
L 2291 331 
L 2791 331 
L 2791 2069 
Q 2791 2566 2641 2777 
Q 2491 2988 2144 2988 
Q 1759 2988 1557 2697 
Q 1356 2406 1356 1850 
L 1356 331 
L 1856 331 
L 1856 0 
L 263 0 
L 263 331 
L 781 331 
L 781 2994 
L 231 2994 
L 231 3322 
L 1356 3322 
L 1356 2731 
Q 1516 3063 1762 3238 
Q 2009 3413 2322 3413 
Q 2709 3413 2968 3220 
Q 3228 3028 3316 2675 
z
" transform="scale(0.015625)"/>
       <path id="DejaVuSerif-29" d="M 453 -997 
L 453 -691 
Q 934 -359 1145 242 
Q 1356 844 1356 1931 
Q 1356 3022 1145 3623 
Q 934 4225 453 4556 
L 453 4863 
Q 1216 4522 1603 3783 
Q 1991 3044 1991 1931 
Q 1991 822 1603 83 
Q 1216 -656 453 -997 
z
" transform="scale(0.015625)"/>
      </defs>
      <use xlink:href="#DejaVuSerif-44"/>
      <use xlink:href="#DejaVuSerif-69" x="80.175781"/>
      <use xlink:href="#DejaVuSerif-73" x="112.158203"/>
      <use xlink:href="#DejaVuSerif-74" x="163.476562"/>
      <use xlink:href="#DejaVuSerif-61" x="203.662109"/>
      <use xlink:href="#DejaVuSerif-6e" x="263.28125"/>
      <use xlink:href="#DejaVuSerif-63" x="327.685547"/>
      <use xlink:href="#DejaVuSerif-65" x="383.691406"/>
      <use xlink:href="#DejaVuSerif-20" x="442.871094"/>
      <use xlink:href="#DejaVuSerif-28" x="474.658203"/>
      <use xlink:href="#DejaVuSerif-63" x="513.671875"/>
      <use xlink:href="#DejaVuSerif-6d" x="569.677734"/>
      <use xlink:href="#DejaVuSerif-29" x="664.501953"/>
     </g>
    </g>
   </g>
   <g id="matplotlib.axis_2">
    <g id="ytick_1">
     <g id="line2d_7">
      <defs>
       <path id="m4dc7036823" d="M 0 0 
L -3.5 0 
" style="stroke: #000000; stroke-width: 0.8"/>
      </defs>
      <g>
       <use xlink:href="#m4dc7036823" x="548.296875" y="1344.723906" style="stroke: #000000; stroke-width: 0.8"/>
      </g>
     </g>
     <g id="text_8">
      <!-- -1902.0 -->
      <g transform="translate(119.223437 1386.515313) scale(1.1 -1.1)">
       <defs>
        <path id="DejaVuSerif-2d" d="M 281 1959 
L 1881 1959 
L 1881 1472 
L 281 1472 
L 281 1959 
z
" transform="scale(0.015625)"/>
        <path id="DejaVuSerif-39" d="M 2994 2091 
Q 2784 1856 2512 1740 
Q 2241 1625 1900 1625 
Q 1206 1625 804 2044 
Q 403 2463 403 3188 
Q 403 3897 839 4323 
Q 1275 4750 2003 4750 
Q 2794 4750 3217 4161 
Q 3641 3572 3641 2478 
Q 3641 1253 3137 581 
Q 2634 -91 1722 -91 
Q 1475 -91 1203 -44 
Q 931 3 647 97 
L 647 872 
L 997 872 
Q 1038 556 1241 387 
Q 1444 219 1784 219 
Q 2391 219 2687 676 
Q 2984 1134 2994 2091 
z
M 1978 4441 
Q 1534 4441 1298 4117 
Q 1063 3794 1063 3188 
Q 1063 2581 1298 2256 
Q 1534 1931 1978 1931 
Q 2422 1931 2658 2245 
Q 2894 2559 2894 3150 
Q 2894 3772 2656 4106 
Q 2419 4441 1978 4441 
z
" transform="scale(0.015625)"/>
        <path id="DejaVuSerif-2e" d="M 603 325 
Q 603 500 722 622 
Q 841 744 1019 744 
Q 1191 744 1312 622 
Q 1434 500 1434 325 
Q 1434 153 1312 31 
Q 1191 -91 1019 -91 
Q 841 -91 722 29 
Q 603 150 603 325 
z
" transform="scale(0.015625)"/>
       </defs>
       <use xlink:href="#DejaVuSerif-2d"/>
       <use xlink:href="#DejaVuSerif-31" x="33.789062"/>
       <use xlink:href="#DejaVuSerif-39" x="97.412109"/>
       <use xlink:href="#DejaVuSerif-30" x="161.035156"/>
       <use xlink:href="#DejaVuSerif-32" x="224.658203"/>
       <use xlink:href="#DejaVuSerif-2e" x="288.28125"/>
       <use xlink:href="#DejaVuSerif-30" x="320.068359"/>
      </g>
     </g>
    </g>
    <g id="ytick_2">
     <g id="line2d_8">
      <g>
       <use xlink:href="#m4dc7036823" x="548.296875" y="1182.757344" style="stroke: #000000; stroke-width: 0.8"/>
      </g>
     </g>
     <g id="text_9">
      <!-- -1900.0 -->
      <g transform="translate(119.223437 1224.54875) scale(1.1 -1.1)">
       <use xlink:href="#DejaVuSerif-2d"/>
       <use xlink:href="#DejaVuSerif-31" x="33.789062"/>
       <use xlink:href="#DejaVuSerif-39" x="97.412109"/>
       <use xlink:href="#DejaVuSerif-30" x="161.035156"/>
       <use xlink:href="#DejaVuSerif-30" x="224.658203"/>
       <use xlink:href="#DejaVuSerif-2e" x="288.28125"/>
       <use xlink:href="#DejaVuSerif-30" x="320.068359"/>
      </g>
     </g>
    </g>
    <g id="ytick_3">
     <g id="line2d_9">
      <g>
       <use xlink:href="#m4dc7036823" x="548.296875" y="1020.790781" style="stroke: #000000; stroke-width: 0.8"/>
      </g>
     </g>
     <g id="text_10">
      <!-- -1898.0 -->
      <g transform="translate(119.223437 1062.582187) scale(1.1 -1.1)">
       <use xlink:href="#DejaVuSerif-2d"/>
       <use xlink:href="#DejaVuSerif-31" x="33.789062"/>
       <use xlink:href="#DejaVuSerif-38" x="97.412109"/>
       <use xlink:href="#DejaVuSerif-39" x="161.035156"/>
       <use xlink:href="#DejaVuSerif-38" x="224.658203"/>
       <use xlink:href="#DejaVuSerif-2e" x="288.28125"/>
       <use xlink:href="#DejaVuSerif-30" x="320.068359"/>
      </g>
     </g>
    </g>
    <g id="ytick_4">
     <g id="line2d_10">
      <g>
       <use xlink:href="#m4dc7036823" x="548.296875" y="858.824219" style="stroke: #000000; stroke-width: 0.8"/>
      </g>
     </g>
     <g id="text_11">
      <!-- -1896.0 -->
      <g transform="translate(119.223437 900.615625) scale(1.1 -1.1)">
       <use xlink:href="#DejaVuSerif-2d"/>
       <use xlink:href="#DejaVuSerif-31" x="33.789062"/>
       <use xlink:href="#DejaVuSerif-38" x="97.412109"/>
       <use xlink:href="#DejaVuSerif-39" x="161.035156"/>
       <use xlink:href="#DejaVuSerif-36" x="224.658203"/>
       <use xlink:href="#DejaVuSerif-2e" x="288.28125"/>
       <use xlink:href="#DejaVuSerif-30" x="320.068359"/>
      </g>
     </g>
    </g>
    <g id="ytick_5">
     <g id="line2d_11">
      <g>
       <use xlink:href="#m4dc7036823" x="548.296875" y="696.857656" style="stroke: #000000; stroke-width: 0.8"/>
      </g>
     </g>
     <g id="text_12">
      <!-- -1894.0 -->
      <g transform="translate(119.223437 738.649062) scale(1.1 -1.1)">
       <use xlink:href="#DejaVuSerif-2d"/>
       <use xlink:href="#DejaVuSerif-31" x="33.789062"/>
       <use xlink:href="#DejaVuSerif-38" x="97.412109"/>
       <use xlink:href="#DejaVuSerif-39" x="161.035156"/>
       <use xlink:href="#DejaVuSerif-34" x="224.658203"/>
       <use xlink:href="#DejaVuSerif-2e" x="288.28125"/>
       <use xlink:href="#DejaVuSerif-30" x="320.068359"/>
      </g>
     </g>
    </g>
    <g id="ytick_6">
     <g id="line2d_12">
      <g>
       <use xlink:href="#m4dc7036823" x="548.296875" y="534.891094" style="stroke: #000000; stroke-width: 0.8"/>
      </g>
     </g>
     <g id="text_13">
      <!-- -1892.0 -->
      <g transform="translate(119.223437 576.6825) scale(1.1 -1.1)">
       <use xlink:href="#DejaVuSerif-2d"/>
       <use xlink:href="#DejaVuSerif-31" x="33.789062"/>
       <use xlink:href="#DejaVuSerif-38" x="97.412109"/>
       <use xlink:href="#DejaVuSerif-39" x="161.035156"/>
       <use xlink:href="#DejaVuSerif-32" x="224.658203"/>
       <use xlink:href="#DejaVuSerif-2e" x="288.28125"/>
       <use xlink:href="#DejaVuSerif-30" x="320.068359"/>
      </g>
     </g>
    </g>
    <g id="ytick_7">
     <g id="line2d_13">
      <g>
       <use xlink:href="#m4dc7036823" x="548.296875" y="372.924531" style="stroke: #000000; stroke-width: 0.8"/>
      </g>
     </g>
     <g id="text_14">
      <!-- -1890.0 -->
      <g transform="translate(119.223437 414.715938) scale(1.1 -1.1)">
       <use xlink:href="#DejaVuSerif-2d"/>
       <use xlink:href="#DejaVuSerif-31" x="33.789062"/>
       <use xlink:href="#DejaVuSerif-38" x="97.412109"/>
       <use xlink:href="#DejaVuSerif-39" x="161.035156"/>
       <use xlink:href="#DejaVuSerif-30" x="224.658203"/>
       <use xlink:href="#DejaVuSerif-2e" x="288.28125"/>
       <use xlink:href="#DejaVuSerif-30" x="320.068359"/>
      </g>
     </g>
    </g>
    <g id="ytick_8">
     <g id="line2d_14">
      <g>
       <use xlink:href="#m4dc7036823" x="548.296875" y="210.957969" style="stroke: #000000; stroke-width: 0.8"/>
      </g>
     </g>
     <g id="text_15">
      <!-- -1888.0 -->
      <g transform="translate(119.223437 252.749375) scale(1.1 -1.1)">
       <use xlink:href="#DejaVuSerif-2d"/>
       <use xlink:href="#DejaVuSerif-31" x="33.789062"/>
       <use xlink:href="#DejaVuSerif-38" x="97.412109"/>
       <use xlink:href="#DejaVuSerif-38" x="161.035156"/>
       <use xlink:href="#DejaVuSerif-38" x="224.658203"/>
       <use xlink:href="#DejaVuSerif-2e" x="288.28125"/>
       <use xlink:href="#DejaVuSerif-30" x="320.068359"/>
      </g>
     </g>
    </g>
    <g id="ytick_9">
     <g id="line2d_15">
      <g>
       <use xlink:href="#m4dc7036823" x="548.296875" y="48.991406" style="stroke: #000000; stroke-width: 0.8"/>
      </g>
     </g>
     <g id="text_16">
      <!-- -1886.0 -->
      <g transform="translate(119.223437 90.782812) scale(1.1 -1.1)">
       <use xlink:href="#DejaVuSerif-2d"/>
       <use xlink:href="#DejaVuSerif-31" x="33.789062"/>
       <use xlink:href="#DejaVuSerif-38" x="97.412109"/>
       <use xlink:href="#DejaVuSerif-38" x="161.035156"/>
       <use xlink:href="#DejaVuSerif-36" x="224.658203"/>
       <use xlink:href="#DejaVuSerif-2e" x="288.28125"/>
       <use xlink:href="#DejaVuSerif-30" x="320.068359"/>
      </g>
     </g>
    </g>
    <g id="text_17">
     <!-- Latency (ms) -->
     <g transform="translate(90.782812 1058.90375) rotate(-90) scale(1.1 -1.1)">
      <defs>
       <path id="DejaVuSerif-4c" d="M 353 0 
L 353 331 
L 947 331 
L 947 4331 
L 353 4331 
L 353 4666 
L 2175 4666 
L 2175 4331 
L 1581 4331 
L 1581 384 
L 3713 384 
L 3713 1166 
L 4097 1166 
L 4097 0 
L 353 0 
z
" transform="scale(0.015625)"/>
       <path id="DejaVuSerif-79" d="M 1381 -609 
L 1600 -56 
L 359 2988 
L -19 2988 
L -19 3322 
L 1509 3322 
L 1509 2988 
L 978 2988 
L 1913 703 
L 2847 2988 
L 2350 2988 
L 2350 3322 
L 3597 3322 
L 3597 2988 
L 3225 2988 
L 1703 -750 
Q 1547 -1138 1356 -1280 
Q 1166 -1422 819 -1422 
Q 672 -1422 517 -1397 
Q 363 -1372 206 -1325 
L 206 -691 
L 500 -691 
Q 519 -903 608 -995 
Q 697 -1088 884 -1088 
Q 1056 -1088 1161 -992 
Q 1266 -897 1381 -609 
z
" transform="scale(0.015625)"/>
      </defs>
      <use xlink:href="#DejaVuSerif-4c"/>
      <use xlink:href="#DejaVuSerif-61" x="66.40625"/>
      <use xlink:href="#DejaVuSerif-74" x="126.025391"/>
      <use xlink:href="#DejaVuSerif-65" x="166.210938"/>
      <use xlink:href="#DejaVuSerif-6e" x="225.390625"/>
      <use xlink:href="#DejaVuSerif-63" x="289.794922"/>
      <use xlink:href="#DejaVuSerif-79" x="345.800781"/>
      <use xlink:href="#DejaVuSerif-20" x="402.294922"/>
      <use xlink:href="#DejaVuSerif-28" x="434.082031"/>
      <use xlink:href="#DejaVuSerif-6d" x="473.095703"/>
      <use xlink:href="#DejaVuSerif-73" x="567.919922"/>
      <use xlink:href="#DejaVuSerif-29" x="619.238281"/>
     </g>
    </g>
   </g>
   <g id="LineCollection_1">
    <path d="M 622.871 264.543486 
L 622.871 249.885231 
" clip-path="url(#p49b7b7983c)" style="fill: none; stroke: #1f77b4; stroke-width: 20"/>
    <path d="M 697.445125 442.969336 
L 697.445125 428.296208 
" clip-path="url(#p49b7b7983c)" style="fill: none; stroke: #1f77b4; stroke-width: 20"/>
    <path d="M 846.593375 638.449325 
L 846.593375 622.870422 
" clip-path="url(#p49b7b7983c)" style="fill: none; stroke: #1f77b4; stroke-width: 20"/>
    <path d="M 1144.889875 827.340501 
L 1144.889875 812.935478 
" clip-path="url(#p49b7b7983c)" style="fill: none; stroke: #1f77b4; stroke-width: 20"/>
    <path d="M 1741.482875 1186.827717 
L 1741.482875 1173.586012 
" clip-path="url(#p49b7b7983c)" style="fill: none; stroke: #1f77b4; stroke-width: 20"/>
   </g>
   <g id="line2d_16">
    <path d="M 622.871 257.214358 
L 697.445125 435.632772 
L 846.593375 630.659873 
L 1144.889875 820.137989 
L 1741.482875 1180.206865 
" clip-path="url(#p49b7b7983c)" style="fill: none; stroke: #1f77b4; stroke-width: 20; stroke-linecap: square"/>
   </g>
   <g id="patch_3">
    <path d="M 548.296875 1344.723906 
L 548.296875 48.991406 
" style="fill: none; stroke: #000000; stroke-width: 0.8; stroke-linejoin: miter; stroke-linecap: square"/>
   </g>
   <g id="patch_4">
    <path d="M 2039.779375 1344.723906 
L 2039.779375 48.991406 
" style="fill: none; stroke: #000000; stroke-width: 0.8; stroke-linejoin: miter; stroke-linecap: square"/>
   </g>
   <g id="patch_5">
    <path d="M 548.296875 1344.723906 
L 2039.779375 1344.723906 
" style="fill: none; stroke: #000000; stroke-width: 0.8; stroke-linejoin: miter; stroke-linecap: square"/>
   </g>
   <g id="patch_6">
    <path d="M 548.296875 48.991406 
L 2039.779375 48.991406 
" style="fill: none; stroke: #000000; stroke-width: 0.8; stroke-linejoin: miter; stroke-linecap: square"/>
   </g>
  </g>
 </g>
 <defs>
  <clipPath id="p49b7b7983c">
   <rect x="548.296875" y="48.991406" width="1491.4825" height="1295.7325"/>
  </clipPath>
 </defs>
</svg>
