<?xml version="1.0" encoding="utf-8" standalone="no"?>
<!DOCTYPE svg PUBLIC "-//W3C//DTD SVG 1.1//EN"
  "http://www.w3.org/Graphics/SVG/1.1/DTD/svg11.dtd">
<svg xmlns:xlink="http://www.w3.org/1999/xlink" width="2152.303438pt" height="1574.635125pt" viewBox="0 0 2152.303438 1574.635125" xmlns="http://www.w3.org/2000/svg" version="1.1">
 <metadata>
  <rdf:RDF xmlns:dc="http://purl.org/dc/elements/1.1/" xmlns:cc="http://creativecommons.org/ns#" xmlns:rdf="http://www.w3.org/1999/02/22-rdf-syntax-ns#">
   <cc:Work>
    <dc:type rdf:resource="http://purl.org/dc/dcmitype/StillImage"/>
    <dc:date>2023-03-30T22:49:44.961748</dc:date>
    <dc:format>image/svg+xml</dc:format>
    <dc:creator>
     <cc:Agent>
      <dc:title>Matplotlib v3.6.2, https://matplotlib.org/</dc:title>
     </cc:Agent>
    </dc:creator>
   </cc:Work>
  </rdf:RDF>
 </metadata>
 <defs>
  <style type="text/css">*{stroke-linejoin: round; stroke-linecap: butt}</style>
 </defs>
 <g id="figure_1">
  <g id="patch_1">
   <path d="M 0 1574.635125 
L 2152.303438 1574.635125 
L 2152.303438 0 
L 0 0 
z
" style="fill: #ffffff; stroke: #ffffff; stroke-linejoin: miter"/>
  </g>
  <g id="axes_1">
   <g id="patch_2">
    <path d="M 426.798438 1343.516375 
L 2145.103438 1343.516375 
L 2145.103438 312.911653 
L 426.798438 312.911653 
z
" style="fill: #ffffff"/>
   </g>
   <g id="matplotlib.axis_1">
    <g id="xtick_1">
     <g id="line2d_1">
      <defs>
       <path id="mb8bee57550" d="M 0 0 
L 0 3.5 
" style="stroke: #000000; stroke-width: 0.8"/>
      </defs>
      <g>
       <use xlink:href="#mb8bee57550" x="426.798438" y="1343.516375" style="stroke: #000000; stroke-width: 0.8"/>
      </g>
     </g>
     <g id="text_1">
      <!-- 0 -->
      <g transform="translate(391.804688 1434.099188) scale(1.1 -1.1)">
       <defs>
        <path id="DejaVuSerif-30" d="M 2034 219 
Q 2513 219 2750 744 
Q 2988 1269 2988 2328 
Q 2988 3391 2750 3916 
Q 2513 4441 2034 4441 
Q 1556 4441 1318 3916 
Q 1081 3391 1081 2328 
Q 1081 1269 1318 744 
Q 1556 219 2034 219 
z
M 2034 -91 
Q 1275 -91 848 546 
Q 422 1184 422 2328 
Q 422 3475 848 4112 
Q 1275 4750 2034 4750 
Q 2797 4750 3222 4112 
Q 3647 3475 3647 2328 
Q 3647 1184 3222 546 
Q 2797 -91 2034 -91 
z
" transform="scale(0.015625)"/>
       </defs>
       <use xlink:href="#DejaVuSerif-30"/>
      </g>
     </g>
    </g>
    <g id="xtick_2">
     <g id="line2d_2">
      <g>
       <use xlink:href="#mb8bee57550" x="739.217528" y="1343.516375" style="stroke: #000000; stroke-width: 0.8"/>
      </g>
     </g>
     <g id="text_2">
      <!-- 2 -->
      <g transform="translate(704.223778 1434.099188) scale(1.1 -1.1)">
       <defs>
        <path id="DejaVuSerif-32" d="M 819 3553 
L 469 3553 
L 469 4384 
Q 803 4563 1142 4656 
Q 1481 4750 1806 4750 
Q 2534 4750 2956 4397 
Q 3378 4044 3378 3438 
Q 3378 2753 2422 1800 
Q 2347 1728 2309 1691 
L 1131 513 
L 3078 513 
L 3078 1088 
L 3444 1088 
L 3444 0 
L 434 0 
L 434 341 
L 1850 1753 
Q 2319 2222 2519 2614 
Q 2719 3006 2719 3438 
Q 2719 3909 2473 4175 
Q 2228 4441 1797 4441 
Q 1350 4441 1106 4219 
Q 863 3997 819 3553 
z
" transform="scale(0.015625)"/>
       </defs>
       <use xlink:href="#DejaVuSerif-32"/>
      </g>
     </g>
    </g>
    <g id="xtick_3">
     <g id="line2d_3">
      <g>
       <use xlink:href="#mb8bee57550" x="1051.636619" y="1343.516375" style="stroke: #000000; stroke-width: 0.8"/>
      </g>
     </g>
     <g id="text_3">
      <!-- 4 -->
      <g transform="translate(1016.642869 1434.099188) scale(1.1 -1.1)">
       <defs>
        <path id="DejaVuSerif-34" d="M 2234 1581 
L 2234 4063 
L 641 1581 
L 2234 1581 
z
M 3609 0 
L 1484 0 
L 1484 331 
L 2234 331 
L 2234 1247 
L 197 1247 
L 197 1588 
L 2241 4750 
L 2859 4750 
L 2859 1581 
L 3750 1581 
L 3750 1247 
L 2859 1247 
L 2859 331 
L 3609 331 
L 3609 0 
z
" transform="scale(0.015625)"/>
       </defs>
       <use xlink:href="#DejaVuSerif-34"/>
      </g>
     </g>
    </g>
    <g id="xtick_4">
     <g id="line2d_4">
      <g>
       <use xlink:href="#mb8bee57550" x="1364.05571" y="1343.516375" style="stroke: #000000; stroke-width: 0.8"/>
      </g>
     </g>
     <g id="text_4">
      <!-- 6 -->
      <g transform="translate(1329.06196 1434.099188) scale(1.1 -1.1)">
       <defs>
        <path id="DejaVuSerif-36" d="M 2094 219 
Q 2534 219 2771 542 
Q 3009 866 3009 1472 
Q 3009 2078 2771 2401 
Q 2534 2725 2094 2725 
Q 1647 2725 1412 2412 
Q 1178 2100 1178 1509 
Q 1178 888 1415 553 
Q 1653 219 2094 219 
z
M 1075 2569 
Q 1288 2803 1556 2918 
Q 1825 3034 2163 3034 
Q 2859 3034 3264 2615 
Q 3669 2197 3669 1472 
Q 3669 763 3233 336 
Q 2797 -91 2069 -91 
Q 1278 -91 853 498 
Q 428 1088 428 2181 
Q 428 3406 931 4078 
Q 1434 4750 2350 4750 
Q 2597 4750 2869 4703 
Q 3141 4656 3425 4563 
L 3425 3794 
L 3072 3794 
Q 3034 4109 2831 4275 
Q 2628 4441 2284 4441 
Q 1678 4441 1381 3981 
Q 1084 3522 1075 2569 
z
" transform="scale(0.015625)"/>
       </defs>
       <use xlink:href="#DejaVuSerif-36"/>
      </g>
     </g>
    </g>
    <g id="xtick_5">
     <g id="line2d_5">
      <g>
       <use xlink:href="#mb8bee57550" x="1676.474801" y="1343.516375" style="stroke: #000000; stroke-width: 0.8"/>
      </g>
     </g>
     <g id="text_5">
      <!-- 8 -->
      <g transform="translate(1641.481051 1434.099188) scale(1.1 -1.1)">
       <defs>
        <path id="DejaVuSerif-38" d="M 2981 1275 
Q 2981 1775 2732 2051 
Q 2484 2328 2034 2328 
Q 1584 2328 1336 2051 
Q 1088 1775 1088 1275 
Q 1088 772 1336 495 
Q 1584 219 2034 219 
Q 2484 219 2732 495 
Q 2981 772 2981 1275 
z
M 2853 3541 
Q 2853 3966 2637 4203 
Q 2422 4441 2034 4441 
Q 1650 4441 1433 4203 
Q 1216 3966 1216 3541 
Q 1216 3113 1433 2875 
Q 1650 2638 2034 2638 
Q 2422 2638 2637 2875 
Q 2853 3113 2853 3541 
z
M 2516 2484 
Q 3047 2413 3344 2092 
Q 3641 1772 3641 1275 
Q 3641 619 3225 264 
Q 2809 -91 2034 -91 
Q 1263 -91 845 264 
Q 428 619 428 1275 
Q 428 1772 725 2092 
Q 1022 2413 1556 2484 
Q 1084 2569 832 2842 
Q 581 3116 581 3541 
Q 581 4103 968 4426 
Q 1356 4750 2034 4750 
Q 2713 4750 3100 4426 
Q 3488 4103 3488 3541 
Q 3488 3116 3236 2842 
Q 2984 2569 2516 2484 
z
" transform="scale(0.015625)"/>
       </defs>
       <use xlink:href="#DejaVuSerif-38"/>
      </g>
     </g>
    </g>
    <g id="xtick_6">
     <g id="line2d_6">
      <g>
       <use xlink:href="#mb8bee57550" x="1988.893892" y="1343.516375" style="stroke: #000000; stroke-width: 0.8"/>
      </g>
     </g>
     <g id="text_6">
      <!-- 10 -->
      <g transform="translate(1918.906392 1434.099188) scale(1.1 -1.1)">
       <defs>
        <path id="DejaVuSerif-31" d="M 909 0 
L 909 331 
L 1722 331 
L 1722 4213 
L 781 3603 
L 781 4013 
L 1919 4750 
L 2350 4750 
L 2350 331 
L 3163 331 
L 3163 0 
L 909 0 
z
" transform="scale(0.015625)"/>
       </defs>
       <use xlink:href="#DejaVuSerif-31"/>
       <use xlink:href="#DejaVuSerif-30" x="63.623047"/>
      </g>
     </g>
    </g>
    <g id="text_7">
     <!-- Time (s) -->
     <g transform="translate(1058.345469 1544.558563) scale(1.1 -1.1)">
      <defs>
       <path id="DejaVuSerif-54" d="M 1222 0 
L 1222 331 
L 1819 331 
L 1819 4294 
L 447 4294 
L 447 3566 
L 63 3566 
L 63 4666 
L 4206 4666 
L 4206 3566 
L 3822 3566 
L 3822 4294 
L 2450 4294 
L 2450 331 
L 3047 331 
L 3047 0 
L 1222 0 
z
" transform="scale(0.015625)"/>
       <path id="DejaVuSerif-69" d="M 622 4353 
Q 622 4497 726 4603 
Q 831 4709 978 4709 
Q 1122 4709 1226 4603 
Q 1331 4497 1331 4353 
Q 1331 4206 1228 4103 
Q 1125 4000 978 4000 
Q 831 4000 726 4103 
Q 622 4206 622 4353 
z
M 1356 331 
L 1900 331 
L 1900 0 
L 231 0 
L 231 331 
L 781 331 
L 781 2988 
L 231 2988 
L 231 3322 
L 1356 3322 
L 1356 331 
z
" transform="scale(0.015625)"/>
       <path id="DejaVuSerif-6d" d="M 3316 2675 
Q 3481 3041 3739 3227 
Q 3997 3413 4341 3413 
Q 4863 3413 5119 3089 
Q 5375 2766 5375 2113 
L 5375 331 
L 5894 331 
L 5894 0 
L 4300 0 
L 4300 331 
L 4800 331 
L 4800 2047 
Q 4800 2556 4650 2772 
Q 4500 2988 4153 2988 
Q 3769 2988 3567 2697 
Q 3366 2406 3366 1850 
L 3366 331 
L 3866 331 
L 3866 0 
L 2291 0 
L 2291 331 
L 2791 331 
L 2791 2069 
Q 2791 2566 2641 2777 
Q 2491 2988 2144 2988 
Q 1759 2988 1557 2697 
Q 1356 2406 1356 1850 
L 1356 331 
L 1856 331 
L 1856 0 
L 263 0 
L 263 331 
L 781 331 
L 781 2994 
L 231 2994 
L 231 3322 
L 1356 3322 
L 1356 2731 
Q 1516 3063 1762 3238 
Q 2009 3413 2322 3413 
Q 2709 3413 2968 3220 
Q 3228 3028 3316 2675 
z
" transform="scale(0.015625)"/>
       <path id="DejaVuSerif-65" d="M 3469 1600 
L 991 1600 
L 991 1575 
Q 991 903 1244 561 
Q 1497 219 1991 219 
Q 2369 219 2611 417 
Q 2853 616 2950 1006 
L 3413 1006 
Q 3275 459 2904 184 
Q 2534 -91 1931 -91 
Q 1203 -91 761 389 
Q 319 869 319 1663 
Q 319 2450 753 2931 
Q 1188 3413 1894 3413 
Q 2647 3413 3050 2948 
Q 3453 2484 3469 1600 
z
M 2791 1931 
Q 2772 2513 2545 2808 
Q 2319 3103 1894 3103 
Q 1497 3103 1269 2806 
Q 1041 2509 991 1931 
L 2791 1931 
z
" transform="scale(0.015625)"/>
       <path id="DejaVuSerif-20" transform="scale(0.015625)"/>
       <path id="DejaVuSerif-28" d="M 2041 -997 
Q 1281 -656 893 83 
Q 506 822 506 1931 
Q 506 3044 893 3783 
Q 1281 4522 2041 4863 
L 2041 4556 
Q 1559 4225 1350 3623 
Q 1141 3022 1141 1931 
Q 1141 844 1350 242 
Q 1559 -359 2041 -691 
L 2041 -997 
z
" transform="scale(0.015625)"/>
       <path id="DejaVuSerif-73" d="M 359 184 
L 359 959 
L 691 959 
Q 703 588 923 403 
Q 1144 219 1575 219 
Q 1963 219 2166 364 
Q 2369 509 2369 788 
Q 2369 1006 2220 1140 
Q 2072 1275 1594 1428 
L 1178 1569 
Q 750 1706 558 1912 
Q 366 2119 366 2438 
Q 366 2894 700 3153 
Q 1034 3413 1625 3413 
Q 1888 3413 2178 3344 
Q 2469 3275 2778 3144 
L 2778 2419 
L 2447 2419 
Q 2434 2741 2221 2922 
Q 2009 3103 1644 3103 
Q 1281 3103 1095 2975 
Q 909 2847 909 2591 
Q 909 2381 1050 2254 
Q 1191 2128 1613 1997 
L 2069 1856 
Q 2541 1709 2748 1489 
Q 2956 1269 2956 922 
Q 2956 450 2595 179 
Q 2234 -91 1600 -91 
Q 1278 -91 972 -22 
Q 666 47 359 184 
z
" transform="scale(0.015625)"/>
       <path id="DejaVuSerif-29" d="M 453 -997 
L 453 -691 
Q 934 -359 1145 242 
Q 1356 844 1356 1931 
Q 1356 3022 1145 3623 
Q 934 4225 453 4556 
L 453 4863 
Q 1216 4522 1603 3783 
Q 1991 3044 1991 1931 
Q 1991 822 1603 83 
Q 1216 -656 453 -997 
z
" transform="scale(0.015625)"/>
      </defs>
      <use xlink:href="#DejaVuSerif-54"/>
      <use xlink:href="#DejaVuSerif-69" x="66.699219"/>
      <use xlink:href="#DejaVuSerif-6d" x="98.681641"/>
      <use xlink:href="#DejaVuSerif-65" x="193.505859"/>
      <use xlink:href="#DejaVuSerif-20" x="252.685547"/>
      <use xlink:href="#DejaVuSerif-28" x="284.472656"/>
      <use xlink:href="#DejaVuSerif-73" x="323.486328"/>
      <use xlink:href="#DejaVuSerif-29" x="374.804688"/>
     </g>
    </g>
   </g>
   <g id="matplotlib.axis_2">
    <g id="ytick_1">
     <g id="line2d_7">
      <defs>
       <path id="m9bb76806c6" d="M 0 0 
L -3.5 0 
" style="stroke: #000000; stroke-width: 0.8"/>
      </defs>
      <g>
       <use xlink:href="#m9bb76806c6" x="426.798438" y="1191.736407" style="stroke: #000000; stroke-width: 0.8"/>
      </g>
     </g>
     <g id="text_8">
      <!-- −110 -->
      <g transform="translate(117.659375 1233.527813) scale(1.1 -1.1)">
       <defs>
        <path id="DejaVuSerif-2212" d="M 678 2259 
L 4684 2259 
L 4684 1753 
L 678 1753 
L 678 2259 
z
" transform="scale(0.015625)"/>
       </defs>
       <use xlink:href="#DejaVuSerif-2212"/>
       <use xlink:href="#DejaVuSerif-31" x="83.789062"/>
       <use xlink:href="#DejaVuSerif-31" x="147.412109"/>
       <use xlink:href="#DejaVuSerif-30" x="211.035156"/>
      </g>
     </g>
    </g>
    <g id="ytick_2">
     <g id="line2d_8">
      <g>
       <use xlink:href="#m9bb76806c6" x="426.798438" y="1023.091998" style="stroke: #000000; stroke-width: 0.8"/>
      </g>
     </g>
     <g id="text_9">
      <!-- −105 -->
      <g transform="translate(117.659375 1064.883404) scale(1.1 -1.1)">
       <defs>
        <path id="DejaVuSerif-35" d="M 3219 4666 
L 3219 4153 
L 1081 4153 
L 1081 2816 
Q 1244 2928 1461 2984 
Q 1678 3041 1947 3041 
Q 2703 3041 3140 2622 
Q 3578 2203 3578 1478 
Q 3578 738 3136 323 
Q 2694 -91 1894 -91 
Q 1572 -91 1234 -12 
Q 897 66 544 225 
L 544 1131 
L 897 1131 
Q 925 688 1179 453 
Q 1434 219 1894 219 
Q 2388 219 2653 544 
Q 2919 869 2919 1478 
Q 2919 2084 2655 2407 
Q 2391 2731 1894 2731 
Q 1613 2731 1398 2631 
Q 1184 2531 1019 2322 
L 750 2322 
L 750 4666 
L 3219 4666 
z
" transform="scale(0.015625)"/>
       </defs>
       <use xlink:href="#DejaVuSerif-2212"/>
       <use xlink:href="#DejaVuSerif-31" x="83.789062"/>
       <use xlink:href="#DejaVuSerif-30" x="147.412109"/>
       <use xlink:href="#DejaVuSerif-35" x="211.035156"/>
      </g>
     </g>
    </g>
    <g id="ytick_3">
     <g id="line2d_9">
      <g>
       <use xlink:href="#m9bb76806c6" x="426.798438" y="854.447589" style="stroke: #000000; stroke-width: 0.8"/>
      </g>
     </g>
     <g id="text_10">
      <!-- −100 -->
      <g transform="translate(117.659375 896.238995) scale(1.1 -1.1)">
       <use xlink:href="#DejaVuSerif-2212"/>
       <use xlink:href="#DejaVuSerif-31" x="83.789062"/>
       <use xlink:href="#DejaVuSerif-30" x="147.412109"/>
       <use xlink:href="#DejaVuSerif-30" x="211.035156"/>
      </g>
     </g>
    </g>
    <g id="ytick_4">
     <g id="line2d_10">
      <g>
       <use xlink:href="#m9bb76806c6" x="426.798438" y="685.80318" style="stroke: #000000; stroke-width: 0.8"/>
      </g>
     </g>
     <g id="text_11">
      <!-- −95 -->
      <g transform="translate(187.646875 727.594586) scale(1.1 -1.1)">
       <defs>
        <path id="DejaVuSerif-39" d="M 2994 2091 
Q 2784 1856 2512 1740 
Q 2241 1625 1900 1625 
Q 1206 1625 804 2044 
Q 403 2463 403 3188 
Q 403 3897 839 4323 
Q 1275 4750 2003 4750 
Q 2794 4750 3217 4161 
Q 3641 3572 3641 2478 
Q 3641 1253 3137 581 
Q 2634 -91 1722 -91 
Q 1475 -91 1203 -44 
Q 931 3 647 97 
L 647 872 
L 997 872 
Q 1038 556 1241 387 
Q 1444 219 1784 219 
Q 2391 219 2687 676 
Q 2984 1134 2994 2091 
z
M 1978 4441 
Q 1534 4441 1298 4117 
Q 1063 3794 1063 3188 
Q 1063 2581 1298 2256 
Q 1534 1931 1978 1931 
Q 2422 1931 2658 2245 
Q 2894 2559 2894 3150 
Q 2894 3772 2656 4106 
Q 2419 4441 1978 4441 
z
" transform="scale(0.015625)"/>
       </defs>
       <use xlink:href="#DejaVuSerif-2212"/>
       <use xlink:href="#DejaVuSerif-39" x="83.789062"/>
       <use xlink:href="#DejaVuSerif-35" x="147.412109"/>
      </g>
     </g>
    </g>
    <g id="ytick_5">
     <g id="line2d_11">
      <g>
       <use xlink:href="#m9bb76806c6" x="426.798438" y="517.15877" style="stroke: #000000; stroke-width: 0.8"/>
      </g>
     </g>
     <g id="text_12">
      <!-- −90 -->
      <g transform="translate(187.646875 558.950177) scale(1.1 -1.1)">
       <use xlink:href="#DejaVuSerif-2212"/>
       <use xlink:href="#DejaVuSerif-39" x="83.789062"/>
       <use xlink:href="#DejaVuSerif-30" x="147.412109"/>
      </g>
     </g>
    </g>
    <g id="ytick_6">
     <g id="line2d_12">
      <g>
       <use xlink:href="#m9bb76806c6" x="426.798438" y="348.514361" style="stroke: #000000; stroke-width: 0.8"/>
      </g>
     </g>
     <g id="text_13">
      <!-- −85 -->
      <g transform="translate(187.646875 390.305768) scale(1.1 -1.1)">
       <use xlink:href="#DejaVuSerif-2212"/>
       <use xlink:href="#DejaVuSerif-38" x="83.789062"/>
       <use xlink:href="#DejaVuSerif-35" x="147.412109"/>
      </g>
     </g>
    </g>
    <g id="text_14">
     <!-- RSSI (dBm) -->
     <g transform="translate(90.782812 1153.917139) rotate(-90) scale(1.1 -1.1)">
      <defs>
       <path id="DejaVuSerif-52" d="M 3066 2316 
Q 3284 2256 3442 2114 
Q 3600 1972 3725 1716 
L 4403 331 
L 4972 331 
L 4972 0 
L 3872 0 
L 3144 1484 
Q 2934 1916 2759 2042 
Q 2584 2169 2278 2169 
L 1581 2169 
L 1581 331 
L 2241 331 
L 2241 0 
L 353 0 
L 353 331 
L 947 331 
L 947 4331 
L 353 4331 
L 353 4666 
L 2719 4666 
Q 3400 4666 3770 4341 
Q 4141 4016 4141 3419 
Q 4141 2938 3870 2661 
Q 3600 2384 3066 2316 
z
M 1581 2503 
L 2503 2503 
Q 2975 2503 3200 2726 
Q 3425 2950 3425 3419 
Q 3425 3888 3200 4109 
Q 2975 4331 2503 4331 
L 1581 4331 
L 1581 2503 
z
" transform="scale(0.015625)"/>
       <path id="DejaVuSerif-53" d="M 594 225 
L 594 1288 
L 953 1284 
Q 969 753 1261 498 
Q 1553 244 2150 244 
Q 2706 244 2998 464 
Q 3291 684 3291 1106 
Q 3291 1444 3114 1625 
Q 2938 1806 2369 1978 
L 1753 2163 
Q 1084 2366 811 2669 
Q 538 2972 538 3500 
Q 538 4094 959 4422 
Q 1381 4750 2144 4750 
Q 2469 4750 2856 4679 
Q 3244 4609 3681 4475 
L 3681 3481 
L 3328 3481 
Q 3275 3975 2998 4195 
Q 2722 4416 2156 4416 
Q 1663 4416 1405 4214 
Q 1147 4013 1147 3628 
Q 1147 3294 1340 3103 
Q 1534 2913 2163 2725 
L 2741 2553 
Q 3375 2363 3645 2067 
Q 3916 1772 3916 1275 
Q 3916 597 3481 253 
Q 3047 -91 2188 -91 
Q 1803 -91 1404 -12 
Q 1006 66 594 225 
z
" transform="scale(0.015625)"/>
       <path id="DejaVuSerif-49" d="M 1581 331 
L 2175 331 
L 2175 0 
L 353 0 
L 353 331 
L 947 331 
L 947 4331 
L 353 4331 
L 353 4666 
L 2175 4666 
L 2175 4331 
L 1581 4331 
L 1581 331 
z
" transform="scale(0.015625)"/>
       <path id="DejaVuSerif-64" d="M 3359 331 
L 3909 331 
L 3909 0 
L 2784 0 
L 2784 519 
Q 2616 206 2355 57 
Q 2094 -91 1709 -91 
Q 1097 -91 708 395 
Q 319 881 319 1663 
Q 319 2444 706 2928 
Q 1094 3413 1709 3413 
Q 2094 3413 2355 3264 
Q 2616 3116 2784 2803 
L 2784 4531 
L 2241 4531 
L 2241 4863 
L 3359 4863 
L 3359 331 
z
M 2784 1497 
L 2784 1825 
Q 2784 2422 2554 2737 
Q 2325 3053 1888 3053 
Q 1444 3053 1217 2703 
Q 991 2353 991 1663 
Q 991 975 1217 622 
Q 1444 269 1888 269 
Q 2325 269 2554 583 
Q 2784 897 2784 1497 
z
" transform="scale(0.015625)"/>
       <path id="DejaVuSerif-42" d="M 1581 331 
L 2516 331 
Q 3078 331 3337 575 
Q 3597 819 3597 1350 
Q 3597 1878 3339 2120 
Q 3081 2363 2516 2363 
L 1581 2363 
L 1581 331 
z
M 1581 2694 
L 2375 2694 
Q 2888 2694 3123 2891 
Q 3359 3088 3359 3513 
Q 3359 3941 3123 4136 
Q 2888 4331 2375 4331 
L 1581 4331 
L 1581 2694 
z
M 353 0 
L 353 331 
L 947 331 
L 947 4331 
L 353 4331 
L 353 4666 
L 2656 4666 
Q 3363 4666 3720 4377 
Q 4078 4088 4078 3513 
Q 4078 3097 3829 2850 
Q 3581 2603 3103 2547 
Q 3697 2472 4005 2167 
Q 4313 1863 4313 1350 
Q 4313 656 3875 328 
Q 3438 0 2509 0 
L 353 0 
z
" transform="scale(0.015625)"/>
      </defs>
      <use xlink:href="#DejaVuSerif-52"/>
      <use xlink:href="#DejaVuSerif-53" x="75.292969"/>
      <use xlink:href="#DejaVuSerif-53" x="142.048828"/>
      <use xlink:href="#DejaVuSerif-49" x="210.554688"/>
      <use xlink:href="#DejaVuSerif-20" x="250.056641"/>
      <use xlink:href="#DejaVuSerif-28" x="281.84375"/>
      <use xlink:href="#DejaVuSerif-64" x="320.857422"/>
      <use xlink:href="#DejaVuSerif-42" x="384.871094"/>
      <use xlink:href="#DejaVuSerif-6d" x="458.357422"/>
      <use xlink:href="#DejaVuSerif-29" x="553.181641"/>
     </g>
    </g>
   </g>
   <g id="line2d_13">
    <path d="M 583.007983 419.719779 
L 739.217528 412.224471 
L 895.427074 412.224471 
L 1051.636619 520.906424 
L 1207.846165 498.420503 
L 1364.05571 445.953353 
L 1520.265256 543.392345 
L 1676.474801 453.44866 
L 1832.684347 442.2057 
L 1988.893892 567.752093 
" clip-path="url(#p8ad62ab9f2)" style="fill: none; stroke-dasharray: 37,16; stroke-dashoffset: 0; stroke: #0000ff; stroke-width: 10"/>
    <defs>
     <path id="m03ca8693db" d="M 40 0 
L -40 -40 
L -40 40 
z
" style="stroke: #0000ff; stroke-linejoin: miter"/>
    </defs>
    <g clip-path="url(#p8ad62ab9f2)">
     <use xlink:href="#m03ca8693db" x="583.007983" y="419.719779" style="fill: #0000ff; stroke: #0000ff; stroke-linejoin: miter"/>
     <use xlink:href="#m03ca8693db" x="739.217528" y="412.224471" style="fill: #0000ff; stroke: #0000ff; stroke-linejoin: miter"/>
     <use xlink:href="#m03ca8693db" x="895.427074" y="412.224471" style="fill: #0000ff; stroke: #0000ff; stroke-linejoin: miter"/>
     <use xlink:href="#m03ca8693db" x="1051.636619" y="520.906424" style="fill: #0000ff; stroke: #0000ff; stroke-linejoin: miter"/>
     <use xlink:href="#m03ca8693db" x="1207.846165" y="498.420503" style="fill: #0000ff; stroke: #0000ff; stroke-linejoin: miter"/>
     <use xlink:href="#m03ca8693db" x="1364.05571" y="445.953353" style="fill: #0000ff; stroke: #0000ff; stroke-linejoin: miter"/>
     <use xlink:href="#m03ca8693db" x="1520.265256" y="543.392345" style="fill: #0000ff; stroke: #0000ff; stroke-linejoin: miter"/>
     <use xlink:href="#m03ca8693db" x="1676.474801" y="453.44866" style="fill: #0000ff; stroke: #0000ff; stroke-linejoin: miter"/>
     <use xlink:href="#m03ca8693db" x="1832.684347" y="442.2057" style="fill: #0000ff; stroke: #0000ff; stroke-linejoin: miter"/>
     <use xlink:href="#m03ca8693db" x="1988.893892" y="567.752093" style="fill: #0000ff; stroke: #0000ff; stroke-linejoin: miter"/>
    </g>
   </g>
   <g id="line2d_14">
    <path d="M 583.007983 393.486204 
L 739.217528 637.083684 
L 895.427074 445.953353 
L 1051.636619 363.504976 
L 1207.846165 389.73855 
L 1364.05571 498.420503 
L 1520.265256 359.757322 
L 1676.474801 517.15877 
L 1832.684347 389.73855 
L 1988.893892 508.72655 
" clip-path="url(#p8ad62ab9f2)" style="fill: none; stroke-dasharray: 64,16,10,16; stroke-dashoffset: 0; stroke: #808000; stroke-width: 10"/>
    <defs>
     <path id="md3da3d93a3" d="M -0 40 
L 40 -40 
L -40 -40 
z
" style="stroke: #808000; stroke-linejoin: miter"/>
    </defs>
    <g clip-path="url(#p8ad62ab9f2)">
     <use xlink:href="#md3da3d93a3" x="583.007983" y="393.486204" style="fill: #808000; stroke: #808000; stroke-linejoin: miter"/>
     <use xlink:href="#md3da3d93a3" x="739.217528" y="637.083684" style="fill: #808000; stroke: #808000; stroke-linejoin: miter"/>
     <use xlink:href="#md3da3d93a3" x="895.427074" y="445.953353" style="fill: #808000; stroke: #808000; stroke-linejoin: miter"/>
     <use xlink:href="#md3da3d93a3" x="1051.636619" y="363.504976" style="fill: #808000; stroke: #808000; stroke-linejoin: miter"/>
     <use xlink:href="#md3da3d93a3" x="1207.846165" y="389.73855" style="fill: #808000; stroke: #808000; stroke-linejoin: miter"/>
     <use xlink:href="#md3da3d93a3" x="1364.05571" y="498.420503" style="fill: #808000; stroke: #808000; stroke-linejoin: miter"/>
     <use xlink:href="#md3da3d93a3" x="1520.265256" y="359.757322" style="fill: #808000; stroke: #808000; stroke-linejoin: miter"/>
     <use xlink:href="#md3da3d93a3" x="1676.474801" y="517.15877" style="fill: #808000; stroke: #808000; stroke-linejoin: miter"/>
     <use xlink:href="#md3da3d93a3" x="1832.684347" y="389.73855" style="fill: #808000; stroke: #808000; stroke-linejoin: miter"/>
     <use xlink:href="#md3da3d93a3" x="1988.893892" y="508.72655" style="fill: #808000; stroke: #808000; stroke-linejoin: miter"/>
    </g>
   </g>
   <g id="line2d_15">
    <path d="M 583.007983 592.111841 
L 739.217528 460.943967 
L 895.427074 408.476818 
L 1051.636619 382.243243 
L 1207.846165 539.644692 
L 1364.05571 648.326644 
L 1520.265256 1146.764564 
L 1676.474801 993.110769 
L 1832.684347 487.177542 
L 1988.893892 614.597762 
" clip-path="url(#p8ad62ab9f2)" style="fill: none; stroke: #008000; stroke-width: 10; stroke-linecap: square"/>
    <defs>
     <path id="mfd74bbeffd" d="M 0 40 
C 10.608124 40 20.783195 35.785348 28.284271 28.284271 
C 35.785348 20.783195 40 10.608124 40 0 
C 40 -10.608124 35.785348 -20.783195 28.284271 -28.284271 
C 20.783195 -35.785348 10.608124 -40 0 -40 
C -10.608124 -40 -20.783195 -35.785348 -28.284271 -28.284271 
C -35.785348 -20.783195 -40 -10.608124 -40 0 
C -40 10.608124 -35.785348 20.783195 -28.284271 28.284271 
C -20.783195 35.785348 -10.608124 40 0 40 
z
" style="stroke: #008000"/>
    </defs>
    <g clip-path="url(#p8ad62ab9f2)">
     <use xlink:href="#mfd74bbeffd" x="583.007983" y="592.111841" style="fill: #008000; stroke: #008000"/>
     <use xlink:href="#mfd74bbeffd" x="739.217528" y="460.943967" style="fill: #008000; stroke: #008000"/>
     <use xlink:href="#mfd74bbeffd" x="895.427074" y="408.476818" style="fill: #008000; stroke: #008000"/>
     <use xlink:href="#mfd74bbeffd" x="1051.636619" y="382.243243" style="fill: #008000; stroke: #008000"/>
     <use xlink:href="#mfd74bbeffd" x="1207.846165" y="539.644692" style="fill: #008000; stroke: #008000"/>
     <use xlink:href="#mfd74bbeffd" x="1364.05571" y="648.326644" style="fill: #008000; stroke: #008000"/>
     <use xlink:href="#mfd74bbeffd" x="1520.265256" y="1146.764564" style="fill: #008000; stroke: #008000"/>
     <use xlink:href="#mfd74bbeffd" x="1676.474801" y="993.110769" style="fill: #008000; stroke: #008000"/>
     <use xlink:href="#mfd74bbeffd" x="1832.684347" y="487.177542" style="fill: #008000; stroke: #008000"/>
     <use xlink:href="#mfd74bbeffd" x="1988.893892" y="614.597762" style="fill: #008000; stroke: #008000"/>
    </g>
   </g>
   <g id="line2d_16">
    <path d="M 583.007983 517.15877 
L 739.217528 378.49559 
L 895.427074 367.252629 
L 1051.636619 378.49559 
L 1207.846165 397.233857 
L 1364.05571 876.93351 
L 1520.265256 434.710393 
L 1676.474801 689.550833 
L 1832.684347 970.624848 
L 1988.893892 610.850109 
" clip-path="url(#p8ad62ab9f2)" style="fill: none; stroke-dasharray: 64,16,10,16; stroke-dashoffset: 0; stroke: #00008b; stroke-width: 10"/>
    <defs>
     <path id="m9534241021" d="M -0 40 
L 40 -40 
L -40 -40 
z
" style="stroke: #00008b; stroke-linejoin: miter"/>
    </defs>
    <g clip-path="url(#p8ad62ab9f2)">
     <use xlink:href="#m9534241021" x="583.007983" y="517.15877" style="fill: #00008b; stroke: #00008b; stroke-linejoin: miter"/>
     <use xlink:href="#m9534241021" x="739.217528" y="378.49559" style="fill: #00008b; stroke: #00008b; stroke-linejoin: miter"/>
     <use xlink:href="#m9534241021" x="895.427074" y="367.252629" style="fill: #00008b; stroke: #00008b; stroke-linejoin: miter"/>
     <use xlink:href="#m9534241021" x="1051.636619" y="378.49559" style="fill: #00008b; stroke: #00008b; stroke-linejoin: miter"/>
     <use xlink:href="#m9534241021" x="1207.846165" y="397.233857" style="fill: #00008b; stroke: #00008b; stroke-linejoin: miter"/>
     <use xlink:href="#m9534241021" x="1364.05571" y="876.93351" style="fill: #00008b; stroke: #00008b; stroke-linejoin: miter"/>
     <use xlink:href="#m9534241021" x="1520.265256" y="434.710393" style="fill: #00008b; stroke: #00008b; stroke-linejoin: miter"/>
     <use xlink:href="#m9534241021" x="1676.474801" y="689.550833" style="fill: #00008b; stroke: #00008b; stroke-linejoin: miter"/>
     <use xlink:href="#m9534241021" x="1832.684347" y="970.624848" style="fill: #00008b; stroke: #00008b; stroke-linejoin: miter"/>
     <use xlink:href="#m9534241021" x="1988.893892" y="610.850109" style="fill: #00008b; stroke: #00008b; stroke-linejoin: miter"/>
    </g>
   </g>
   <g id="line2d_17">
    <path d="M 583.007983 640.831337 
L 739.217528 592.111841 
L 895.427074 434.710393 
L 1051.636619 382.243243 
L 1207.846165 670.812565 
L 1364.05571 457.196314 
L 1520.265256 775.746864 
L 1676.474801 637.083684 
L 1832.684347 723.279715 
L 1988.893892 910.662392 
" clip-path="url(#p8ad62ab9f2)" style="fill: none; stroke-dasharray: 64,16,10,16; stroke-dashoffset: 0; stroke: #a52a2a; stroke-width: 10"/>
    <defs>
     <path id="m6b74baf3b9" d="M -0 40 
L 40 -40 
L -40 -40 
z
" style="stroke: #a52a2a; stroke-linejoin: miter"/>
    </defs>
    <g clip-path="url(#p8ad62ab9f2)">
     <use xlink:href="#m6b74baf3b9" x="583.007983" y="640.831337" style="fill: #a52a2a; stroke: #a52a2a; stroke-linejoin: miter"/>
     <use xlink:href="#m6b74baf3b9" x="739.217528" y="592.111841" style="fill: #a52a2a; stroke: #a52a2a; stroke-linejoin: miter"/>
     <use xlink:href="#m6b74baf3b9" x="895.427074" y="434.710393" style="fill: #a52a2a; stroke: #a52a2a; stroke-linejoin: miter"/>
     <use xlink:href="#m6b74baf3b9" x="1051.636619" y="382.243243" style="fill: #a52a2a; stroke: #a52a2a; stroke-linejoin: miter"/>
     <use xlink:href="#m6b74baf3b9" x="1207.846165" y="670.812565" style="fill: #a52a2a; stroke: #a52a2a; stroke-linejoin: miter"/>
     <use xlink:href="#m6b74baf3b9" x="1364.05571" y="457.196314" style="fill: #a52a2a; stroke: #a52a2a; stroke-linejoin: miter"/>
     <use xlink:href="#m6b74baf3b9" x="1520.265256" y="775.746864" style="fill: #a52a2a; stroke: #a52a2a; stroke-linejoin: miter"/>
     <use xlink:href="#m6b74baf3b9" x="1676.474801" y="637.083684" style="fill: #a52a2a; stroke: #a52a2a; stroke-linejoin: miter"/>
     <use xlink:href="#m6b74baf3b9" x="1832.684347" y="723.279715" style="fill: #a52a2a; stroke: #a52a2a; stroke-linejoin: miter"/>
     <use xlink:href="#m6b74baf3b9" x="1988.893892" y="910.662392" style="fill: #a52a2a; stroke: #a52a2a; stroke-linejoin: miter"/>
    </g>
   </g>
   <g id="line2d_18">
    <path d="M 583.007983 697.04614 
L 739.217528 397.233857 
L 895.427074 400.981511 
L 1051.636619 397.233857 
L 1207.846165 652.074298 
L 1364.05571 389.73855 
L 1520.265256 438.458046 
L 1676.474801 730.775022 
L 1832.684347 1075.559147 
L 1988.893892 1296.670706 
" clip-path="url(#p8ad62ab9f2)" style="fill: none; stroke-dasharray: 64,16,10,16; stroke-dashoffset: 0; stroke: #ffc0cb; stroke-width: 10"/>
    <defs>
     <path id="mc41170aae9" d="M -0 40 
L 40 -40 
L -40 -40 
z
" style="stroke: #ffc0cb; stroke-linejoin: miter"/>
    </defs>
    <g clip-path="url(#p8ad62ab9f2)">
     <use xlink:href="#mc41170aae9" x="583.007983" y="697.04614" style="fill: #ffc0cb; stroke: #ffc0cb; stroke-linejoin: miter"/>
     <use xlink:href="#mc41170aae9" x="739.217528" y="397.233857" style="fill: #ffc0cb; stroke: #ffc0cb; stroke-linejoin: miter"/>
     <use xlink:href="#mc41170aae9" x="895.427074" y="400.981511" style="fill: #ffc0cb; stroke: #ffc0cb; stroke-linejoin: miter"/>
     <use xlink:href="#mc41170aae9" x="1051.636619" y="397.233857" style="fill: #ffc0cb; stroke: #ffc0cb; stroke-linejoin: miter"/>
     <use xlink:href="#mc41170aae9" x="1207.846165" y="652.074298" style="fill: #ffc0cb; stroke: #ffc0cb; stroke-linejoin: miter"/>
     <use xlink:href="#mc41170aae9" x="1364.05571" y="389.73855" style="fill: #ffc0cb; stroke: #ffc0cb; stroke-linejoin: miter"/>
     <use xlink:href="#mc41170aae9" x="1520.265256" y="438.458046" style="fill: #ffc0cb; stroke: #ffc0cb; stroke-linejoin: miter"/>
     <use xlink:href="#mc41170aae9" x="1676.474801" y="730.775022" style="fill: #ffc0cb; stroke: #ffc0cb; stroke-linejoin: miter"/>
     <use xlink:href="#mc41170aae9" x="1832.684347" y="1075.559147" style="fill: #ffc0cb; stroke: #ffc0cb; stroke-linejoin: miter"/>
     <use xlink:href="#mc41170aae9" x="1988.893892" y="1296.670706" style="fill: #ffc0cb; stroke: #ffc0cb; stroke-linejoin: miter"/>
    </g>
   </g>
   <g id="patch_3">
    <path d="M 426.798438 1343.516375 
L 426.798438 312.911653 
" style="fill: none; stroke: #000000; stroke-width: 0.8; stroke-linejoin: miter; stroke-linecap: square"/>
   </g>
   <g id="patch_4">
    <path d="M 2145.103438 1343.516375 
L 2145.103438 312.911653 
" style="fill: none; stroke: #000000; stroke-width: 0.8; stroke-linejoin: miter; stroke-linecap: square"/>
   </g>
   <g id="patch_5">
    <path d="M 426.798438 1343.516375 
L 2145.103438 1343.516375 
" style="fill: none; stroke: #000000; stroke-width: 0.8; stroke-linejoin: miter; stroke-linecap: square"/>
   </g>
   <g id="patch_6">
    <path d="M 426.798438 312.911653 
L 2145.103438 312.911653 
" style="fill: none; stroke: #000000; stroke-width: 0.8; stroke-linejoin: miter; stroke-linecap: square"/>
   </g>
   <g id="legend_1">
    <g id="patch_7">
     <path d="M 500.482188 280.61875 
L 2071.419688 280.61875 
L 2071.419688 7.2 
L 500.482188 7.2 
z
" style="fill: #ffffff; stroke: #cccccc; stroke-linejoin: miter"/>
    </g>
    <g id="line2d_19">
     <path d="M 527.982188 79.782813 
L 637.982188 79.782813 
L 747.982188 79.782813 
" style="fill: none; stroke-dasharray: 37,16; stroke-dashoffset: 0; stroke: #0000ff; stroke-width: 10"/>
     <g>
      <use xlink:href="#m03ca8693db" x="637.982188" y="79.782813" style="fill: #0000ff; stroke: #0000ff; stroke-linejoin: miter"/>
     </g>
    </g>
    <g id="text_15">
     <!-- 1 -->
     <g transform="translate(802.982188 118.282813) scale(1.1 -1.1)">
      <use xlink:href="#DejaVuSerif-31"/>
     </g>
    </g>
    <g id="line2d_20">
     <path d="M 527.982188 191.742188 
L 637.982188 191.742188 
L 747.982188 191.742188 
" style="fill: none; stroke-dasharray: 64,16,10,16; stroke-dashoffset: 0; stroke: #808000; stroke-width: 10"/>
     <g>
      <use xlink:href="#md3da3d93a3" x="637.982188" y="191.742188" style="fill: #808000; stroke: #808000; stroke-linejoin: miter"/>
     </g>
    </g>
    <g id="text_16">
     <!-- 9 -->
     <g transform="translate(802.982188 230.242188) scale(1.1 -1.1)">
      <use xlink:href="#DejaVuSerif-39"/>
     </g>
    </g>
    <g id="line2d_21">
     <path d="M 894.969688 79.782813 
L 1004.969688 79.782813 
L 1114.969688 79.782813 
" style="fill: none; stroke: #008000; stroke-width: 10; stroke-linecap: square"/>
     <g>
      <use xlink:href="#mfd74bbeffd" x="1004.969688" y="79.782813" style="fill: #008000; stroke: #008000"/>
     </g>
    </g>
    <g id="text_17">
     <!-- 3 -->
     <g transform="translate(1169.969688 118.282813) scale(1.1 -1.1)">
      <defs>
       <path id="DejaVuSerif-33" d="M 622 4469 
Q 988 4606 1323 4678 
Q 1659 4750 1953 4750 
Q 2638 4750 3022 4454 
Q 3406 4159 3406 3634 
Q 3406 3213 3140 2930 
Q 2875 2647 2388 2547 
Q 2963 2466 3280 2130 
Q 3597 1794 3597 1259 
Q 3597 606 3158 257 
Q 2719 -91 1894 -91 
Q 1528 -91 1179 -12 
Q 831 66 488 225 
L 488 1131 
L 838 1131 
Q 869 681 1141 450 
Q 1413 219 1906 219 
Q 2384 219 2661 495 
Q 2938 772 2938 1253 
Q 2938 1803 2653 2086 
Q 2369 2369 1819 2369 
L 1522 2369 
L 1522 2688 
L 1678 2688 
Q 2225 2688 2498 2914 
Q 2772 3141 2772 3597 
Q 2772 4006 2547 4223 
Q 2322 4441 1900 4441 
Q 1478 4441 1245 4241 
Q 1013 4041 972 3647 
L 622 3647 
L 622 4469 
z
" transform="scale(0.015625)"/>
      </defs>
      <use xlink:href="#DejaVuSerif-33"/>
     </g>
    </g>
    <g id="line2d_22">
     <path d="M 894.969688 191.742188 
L 1004.969688 191.742188 
L 1114.969688 191.742188 
" style="fill: none; stroke-dasharray: 64,16,10,16; stroke-dashoffset: 0; stroke: #00008b; stroke-width: 10"/>
     <g>
      <use xlink:href="#m9534241021" x="1004.969688" y="191.742188" style="fill: #00008b; stroke: #00008b; stroke-linejoin: miter"/>
     </g>
    </g>
    <g id="text_18">
     <!-- 11 -->
     <g transform="translate(1169.969688 230.242188) scale(1.1 -1.1)">
      <use xlink:href="#DejaVuSerif-31"/>
      <use xlink:href="#DejaVuSerif-31" x="63.623047"/>
     </g>
    </g>
    <g id="line2d_23">
     <path d="M 1331.944688 79.782813 
L 1441.944688 79.782813 
L 1551.944688 79.782813 
" style="fill: none; stroke-dasharray: 64,16,10,16; stroke-dashoffset: 0; stroke: #a52a2a; stroke-width: 10"/>
     <g>
      <use xlink:href="#m6b74baf3b9" x="1441.944688" y="79.782813" style="fill: #a52a2a; stroke: #a52a2a; stroke-linejoin: miter"/>
     </g>
    </g>
    <g id="text_19">
     <!-- 5 -->
     <g transform="translate(1606.944688 118.282813) scale(1.1 -1.1)">
      <use xlink:href="#DejaVuSerif-35"/>
     </g>
    </g>
    <g id="line2d_24">
     <path d="M 1698.932188 79.782813 
L 1808.932188 79.782813 
L 1918.932188 79.782813 
" style="fill: none; stroke-dasharray: 64,16,10,16; stroke-dashoffset: 0; stroke: #ffc0cb; stroke-width: 10"/>
     <g>
      <use xlink:href="#mc41170aae9" x="1808.932188" y="79.782813" style="fill: #ffc0cb; stroke: #ffc0cb; stroke-linejoin: miter"/>
     </g>
    </g>
    <g id="text_20">
     <!-- 7 -->
     <g transform="translate(1973.932188 118.282813) scale(1.1 -1.1)">
      <defs>
       <path id="DejaVuSerif-37" d="M 3609 4347 
L 1784 0 
L 1319 0 
L 3059 4153 
L 903 4153 
L 903 3578 
L 538 3578 
L 538 4666 
L 3609 4666 
L 3609 4347 
z
" transform="scale(0.015625)"/>
      </defs>
      <use xlink:href="#DejaVuSerif-37"/>
     </g>
    </g>
   </g>
  </g>
 </g>
 <defs>
  <clipPath id="p8ad62ab9f2">
   <rect x="426.798438" y="312.911653" width="1718.305" height="1030.604722"/>
  </clipPath>
 </defs>
</svg>
